<svg id="svg" version="1.1" xmlns="http://www.w3.org/2000/svg" viewBox="0 0 1024 1024" style="display: block;"><path d="M0 0 C337.92 0 675.84 0 1024 0 C1024 337.92 1024 675.84 1024 1024 C686.08 1024 348.16 1024 0 1024 C0 686.08 0 348.16 0 0 Z " transform="translate(0,0)" style="fill: #FEFEFE;"/><path d="M0 0 C7.88389879 4.5572451 11.97143879 10.48218638 16.27734375 18.31640625 C17.4796794 20.41024796 18.69320302 22.4973873 19.90722656 24.58447266 C21.31587785 27.00769424 22.71671541 29.43532475 24.1171875 31.86328125 C26.40497953 35.82125682 28.71338159 39.76659593 31.03125 43.70703125 C31.66353516 44.78388184 32.29582031 45.86073242 32.94726562 46.97021484 C34.18928658 49.08414988 35.43399119 51.19651092 36.68164062 53.30712891 C37.25076172 54.2769873 37.81988281 55.2468457 38.40625 56.24609375 C38.9122876 57.10444824 39.4183252 57.96280273 39.93969727 58.84716797 C41.25996696 61.28432943 42.30291979 63.72393406 43.27734375 66.31640625 C43.93734375 66.31640625 44.59734375 66.31640625 45.27734375 66.31640625 C45.55578125 65.07890625 45.55578125 65.07890625 45.83984375 63.81640625 C49.16431973 55.72202995 55.35723215 50.72747095 63.27734375 47.31640625 C72.3234215 44.4481377 81.99531424 46.03982256 90.27734375 50.31640625 C93.44913413 52.46935118 96.39912042 54.78641241 99.27734375 57.31640625 C99.4475 56.20072266 99.4475 56.20072266 99.62109375 55.0625 C101.10253228 48.86338519 105.61482069 44.5070634 110.71484375 40.94140625 C117.57446241 36.73417347 124.31450165 35.37755587 132.27734375 36.31640625 C139.12772476 38.05962563 144.87725867 40.75633441 150.27734375 45.31640625 C150.27734375 45.97640625 150.27734375 46.63640625 150.27734375 47.31640625 C151.26734375 47.31640625 152.25734375 47.31640625 153.27734375 47.31640625 C153.39722656 46.23552734 153.39722656 46.23552734 153.51953125 45.1328125 C155.22352103 38.79994325 161.48230163 33.07604602 167.02734375 29.75390625 C174.94725902 26.2508668 185.16297826 25.651855 193.421875 28.33984375 C203.92722753 33.65863762 209.96255527 42.75197681 215.40234375 52.87890625 C216.53092715 54.92667763 217.66118965 56.97352436 218.79296875 59.01953125 C219.65438477 60.58477539 219.65438477 60.58477539 220.53320312 62.18164062 C223.33017925 67.20868057 226.23977524 72.16822646 229.15234375 77.12890625 C235.93308198 88.71003354 242.64399056 100.33051304 249.34228516 111.95947266 C251.35339129 115.44833328 253.3676537 118.93535453 255.3828125 122.421875 C256.06260161 123.59845837 256.7423707 124.7750533 257.42211914 125.95166016 C258.70332541 128.16909003 259.98503042 130.38623184 261.26733398 132.60302734 C262.14240601 134.11823975 262.14240601 134.11823975 263.03515625 135.6640625 C263.79530029 136.9790271 263.79530029 136.9790271 264.57080078 138.32055664 C265.13395996 139.30918701 265.69711914 140.29781738 266.27734375 141.31640625 C266.691017 141.96035843 267.10469025 142.60431061 267.53089905 143.26777649 C271.25811152 149.34076744 272.32327188 154.75521903 273.0078125 161.7890625 C273.12917068 162.87037949 273.25052887 163.95169647 273.37556458 165.06578064 C273.75713818 168.50176846 274.11163532 171.93989879 274.46484375 175.37890625 C274.71235848 177.65970501 274.96169241 179.94030711 275.21289062 182.22070312 C275.3344603 183.33220734 275.45602997 184.44371155 275.58128357 185.58889771 C275.82299088 187.79673498 276.06554784 190.0044794 276.30897522 192.21212769 C276.81207285 196.8180971 277.30016642 201.41679949 277.64428711 206.03759766 C278.43375425 215.62690349 281.32513209 222.46204931 286.46484375 230.56640625 C287.43647461 232.16742187 287.43647461 232.16742187 288.42773438 233.80078125 C291.03167117 238.08778208 293.67531671 242.34960562 296.32666016 246.60742188 C296.96651855 247.66123047 297.60637695 248.71503906 298.265625 249.80078125 C298.84481689 250.74147461 299.42400879 251.68216797 300.02075195 252.65136719 C301.36607546 255.50459264 301.66464089 257.20524264 301.27734375 260.31640625 C295.12371837 267.08539417 284.34505798 271.20392046 276.40625 275.5078125 C271.93419788 277.94056247 267.52866034 280.46606439 263.15234375 283.06640625 C255.97386877 287.32713944 248.75924128 291.5219424 241.52734375 295.69140625 C240.40908203 296.3361792 239.29082031 296.98095215 238.13867188 297.64526367 C230.48168519 302.05579897 222.81032124 306.44062805 215.13232422 310.81445312 C207.28961635 315.29083642 199.49308283 319.84549488 191.70849609 324.42211914 C188.90486067 326.06547194 186.09169646 327.69149356 183.27734375 329.31640625 C182.30571289 329.89293945 181.33408203 330.46947266 180.33300781 331.06347656 C178.90166504 331.8886377 178.90166504 331.8886377 177.44140625 332.73046875 C176.59271973 333.22756348 175.7440332 333.7246582 174.86962891 334.23681641 C171.78916854 335.51971297 169.5840781 335.6630707 166.27734375 335.31640625 C164.36328125 333.2109375 164.36328125 333.2109375 162.65234375 330.12890625 C162.33313965 329.56880859 162.01393555 329.00871094 161.68505859 328.43164062 C160.95593228 327.14794362 160.23674606 325.85857065 159.52539062 324.56494141 C158.10600372 322.00771265 156.63973955 319.48055685 155.16796875 316.953125 C153.04189528 313.28760156 150.91665213 309.62180126 148.81640625 305.94140625 C148.37506348 305.17054688 147.9337207 304.3996875 147.47900391 303.60546875 C146.27734375 301.31640625 146.27734375 301.31640625 145.68115234 298.71484375 C143.69385952 295.31951077 141.40079051 295.0784634 137.72750854 294.03005981 C133.96861277 292.93521535 130.47383389 291.3163787 126.90625 289.71875 C126.12378403 289.37268204 125.34131805 289.02661407 124.53514099 288.6700592 C122.84959735 287.92435649 121.16480822 287.17694636 119.48071289 286.42797852 C114.89757982 284.39041848 110.30818401 282.36706901 105.71875 280.34375 C104.77029205 279.92539886 103.82183411 279.50704773 102.84463501 279.07601929 C93.02001995 274.74970654 83.15151927 270.52806072 73.27734375 266.31640625 C58.20225108 259.88322454 43.17535121 253.34788729 28.17919922 246.7328186 C16.57752046 241.61562589 4.95482781 236.56747636 -6.77539062 231.75024414 C-17.77784352 227.18079982 -26.73525432 223.0147653 -32.09765625 211.87890625 C-35.11783352 203.53200282 -35.42289449 193.00131728 -31.78515625 184.81640625 C-27.69157182 177.92011203 -21.21935121 172.21285657 -13.72265625 169.31640625 C-2.47414249 166.68325014 7.49254055 169.04837 18.33984375 172.31640625 C20.91232878 173.07251577 23.48728859 173.81958161 26.0625 174.56640625 C27.185354 174.9015625 28.30820801 175.23671875 29.46508789 175.58203125 C32.27669452 176.44273687 32.27669452 176.44273687 35.27734375 176.31640625 C25.6719322 158.95078153 25.6719322 158.95078153 15.60717773 141.8503418 C12.44481709 136.64213188 9.4170402 131.36124169 6.40234375 126.06640625 C5.89155273 125.16929932 5.38076172 124.27219238 4.85449219 123.34790039 C4.3443457 122.45192139 3.83419922 121.55594238 3.30859375 120.6328125 C0.52541998 115.74548165 -2.27869264 110.87067109 -5.09765625 106.00390625 C-5.54326904 105.23457764 -5.98888184 104.46524902 -6.44799805 103.67260742 C-9.50887689 98.39498738 -12.58627196 93.12714052 -15.66699219 87.86108398 C-18.69316666 82.68395216 -21.70851351 77.50054941 -24.72265625 72.31640625 C-25.42952196 71.10302572 -26.13639053 69.88964687 -26.84326172 68.67626953 C-28.66490474 65.54704694 -30.47843926 62.41322996 -32.28726196 59.27658081 C-32.98363951 58.07139292 -33.68228061 56.86750955 -34.38339233 55.66506958 C-41.21069541 43.94830097 -46.57277678 34.22420887 -44.72265625 20.31640625 C-43.51126715 16.62266245 -41.87980384 13.54020969 -39.72265625 10.31640625 C-39.33851563 9.73246094 -38.954375 9.14851563 -38.55859375 8.546875 C-29.724138 -3.32254685 -13.01090873 -6.05207586 0 0 Z " transform="translate(479.72265625,362.68359375)" style="fill: #FDF6E6;"/><path d="M0 0 C0.64679901 -0.00453111 1.29359802 -0.00906223 1.959997 -0.01373065 C4.10762726 -0.02629856 6.25500144 -0.02475926 8.40266418 -0.02310181 C9.95071231 -0.02909195 11.49875745 -0.03589861 13.04679871 -0.04345703 C17.23922105 -0.06107778 21.43156168 -0.06581083 25.62401748 -0.0670886 C28.24819706 -0.06851333 30.87235607 -0.07278907 33.49653053 -0.07808304 C42.66561316 -0.09657244 51.83463775 -0.10475528 61.0037384 -0.10317993 C69.52715032 -0.10197979 78.0503085 -0.12305978 86.57365626 -0.15466726 C93.90981737 -0.18089482 101.24589596 -0.19154447 108.58210355 -0.19026911 C112.95541235 -0.18976125 117.32849567 -0.19534609 121.70175743 -0.21662521 C125.81986053 -0.23611647 129.93752563 -0.23605851 134.05564499 -0.22159195 C135.55835809 -0.21951596 137.0610994 -0.22413178 138.56376457 -0.23631287 C150.56118767 -0.3271887 161.5829081 0.74617945 170.52302551 9.48226929 C171.07732239 10.07137085 171.63161926 10.66047241 172.20271301 11.26742554 C172.69513489 11.7637146 173.18755676 12.26000366 173.69490051 12.77133179 C181.26319459 20.98897654 180.64038079 30.64408622 180.60676575 41.0874939 C180.61247453 42.68981908 180.61944076 44.29214019 180.62756348 45.89445496 C180.64545361 50.22921704 180.64433437 54.56377624 180.63862109 58.8985641 C180.63552331 62.52422582 180.64162822 66.14984891 180.64765984 69.77550513 C180.66168976 78.33200826 180.66015647 86.88841151 180.64875793 95.44491577 C180.63727726 104.25754805 180.65135498 113.06987598 180.67815441 121.88246816 C180.70034029 129.46319621 180.70694231 137.04382892 180.701078 144.62458712 C180.69771424 149.14588085 180.70008479 153.6669795 180.71732903 158.18824577 C180.73284232 162.44097509 180.72879434 166.69325488 180.71002388 170.94596672 C180.70635013 172.5015352 180.7094109 174.05713732 180.71990967 175.61267471 C180.77154199 183.89893575 180.58040918 190.99233068 176.20271301 198.26742554 C175.75669739 199.06535522 175.31068176 199.86328491 174.85115051 200.68539429 C169.69793324 207.84615326 162.60554787 211.848181 154.20271301 214.26742554 C150.96234512 214.52469444 150.96234512 214.52469444 147.39833069 214.53485107 C146.73872432 214.53938219 146.07911794 214.5439133 145.3995235 214.54858172 C143.20266265 214.56118052 141.00605116 214.55960831 138.80915833 214.55795288 C137.22845646 214.56394104 135.64775751 214.57074725 134.06706238 214.57830811 C129.78174324 214.59594791 125.49650402 214.60066268 121.21115208 214.60193968 C118.53054287 214.60336319 115.84995385 214.60763663 113.16934967 214.61293411 C103.80806188 214.63142903 94.44683097 214.63960556 85.08552551 214.63803101 C76.37521277 214.63683036 67.66514811 214.65791897 58.95489812 214.68951833 C51.46422518 214.71571966 43.97363307 214.72639666 36.48291469 214.72512019 C32.01464152 214.72461161 27.54658882 214.73023689 23.07836151 214.75147629 C18.87245759 214.77092335 14.66698296 214.7709393 10.46106339 214.75644302 C8.9236475 214.75436168 7.38620429 214.75901535 5.84883499 214.77116394 C-6.50445541 214.86240351 -15.64383801 213.17600112 -24.81681824 204.49008179 C-30.74585862 197.8359911 -32.91300168 191.40700049 -32.94445801 182.62762451 C-32.94997304 181.62852757 -32.94997304 181.62852757 -32.95559949 180.60924685 C-32.96660747 178.37859934 -32.97047527 176.14799846 -32.97428894 173.91732788 C-32.98055586 172.31721856 -32.98720287 170.71711068 -32.99420166 169.11700439 C-33.01522041 163.86246754 -33.02560323 158.60793047 -33.03556824 153.35336304 C-33.03961686 151.54205943 -33.04373381 149.73075597 -33.04791832 147.91945267 C-33.0669666 139.40744125 -33.08119739 130.89543848 -33.08953029 122.38340986 C-33.0992963 112.57038013 -33.1256007 102.75757635 -33.16603118 92.94462621 C-33.1962354 85.3520935 -33.21100331 77.7596254 -33.2143113 70.16703379 C-33.21665721 65.63611928 -33.22555753 61.10544625 -33.25077248 56.57459641 C-33.27413319 52.30800225 -33.2782545 48.0418072 -33.26801109 43.77516556 C-33.26751753 42.21516844 -33.27378466 40.65515115 -33.28756714 39.09521484 C-33.38614628 27.26945634 -32.08019442 17.86473147 -23.71916199 9.02133179 C-16.80511038 2.71155705 -9.40248052 0.02739215 0 0 Z " transform="translate(167.7972869873047,558.7325744628906)" style="fill: #E05A47;"/><path d="M0 0 C7.88389879 4.5572451 11.97143879 10.48218638 16.27734375 18.31640625 C17.4796794 20.41024796 18.69320302 22.4973873 19.90722656 24.58447266 C21.31587785 27.00769424 22.71671541 29.43532475 24.1171875 31.86328125 C26.40497953 35.82125682 28.71338159 39.76659593 31.03125 43.70703125 C31.66353516 44.78388184 32.29582031 45.86073242 32.94726562 46.97021484 C34.18928658 49.08414988 35.43399119 51.19651092 36.68164062 53.30712891 C37.25076172 54.2769873 37.81988281 55.2468457 38.40625 56.24609375 C38.9122876 57.10444824 39.4183252 57.96280273 39.93969727 58.84716797 C41.25996696 61.28432943 42.30291979 63.72393406 43.27734375 66.31640625 C43.93734375 66.31640625 44.59734375 66.31640625 45.27734375 66.31640625 C45.55578125 65.07890625 45.55578125 65.07890625 45.83984375 63.81640625 C49.16431973 55.72202995 55.35723215 50.72747095 63.27734375 47.31640625 C72.3234215 44.4481377 81.99531424 46.03982256 90.27734375 50.31640625 C93.44913413 52.46935118 96.39912042 54.78641241 99.27734375 57.31640625 C99.4475 56.20072266 99.4475 56.20072266 99.62109375 55.0625 C101.10253228 48.86338519 105.61482069 44.5070634 110.71484375 40.94140625 C117.57446241 36.73417347 124.31450165 35.37755587 132.27734375 36.31640625 C139.12772476 38.05962563 144.87725867 40.75633441 150.27734375 45.31640625 C150.27734375 45.97640625 150.27734375 46.63640625 150.27734375 47.31640625 C151.26734375 47.31640625 152.25734375 47.31640625 153.27734375 47.31640625 C153.39722656 46.23552734 153.39722656 46.23552734 153.51953125 45.1328125 C155.22352103 38.79994325 161.48230163 33.07604602 167.02734375 29.75390625 C174.94725902 26.2508668 185.16297826 25.651855 193.421875 28.33984375 C203.92722753 33.65863762 209.96255527 42.75197681 215.40234375 52.87890625 C216.53092715 54.92667763 217.66118965 56.97352436 218.79296875 59.01953125 C219.65438477 60.58477539 219.65438477 60.58477539 220.53320312 62.18164062 C223.33017925 67.20868057 226.23977524 72.16822646 229.15234375 77.12890625 C235.93308198 88.71003354 242.64399056 100.33051304 249.34228516 111.95947266 C251.35339129 115.44833328 253.3676537 118.93535453 255.3828125 122.421875 C256.06260161 123.59845837 256.7423707 124.7750533 257.42211914 125.95166016 C258.70332541 128.16909003 259.98503042 130.38623184 261.26733398 132.60302734 C262.14240601 134.11823975 262.14240601 134.11823975 263.03515625 135.6640625 C263.79530029 136.9790271 263.79530029 136.9790271 264.57080078 138.32055664 C265.13395996 139.30918701 265.69711914 140.29781738 266.27734375 141.31640625 C266.691017 141.96035843 267.10469025 142.60431061 267.53089905 143.26777649 C271.25811152 149.34076744 272.32327188 154.75521903 273.0078125 161.7890625 C273.12917068 162.87037949 273.25052887 163.95169647 273.37556458 165.06578064 C273.75713818 168.50176846 274.11163532 171.93989879 274.46484375 175.37890625 C274.71235848 177.65970501 274.96169241 179.94030711 275.21289062 182.22070312 C275.3344603 183.33220734 275.45602997 184.44371155 275.58128357 185.58889771 C275.82299088 187.79673498 276.06554784 190.0044794 276.30897522 192.21212769 C276.81207285 196.8180971 277.30016642 201.41679949 277.64428711 206.03759766 C278.43375425 215.62690349 281.32513209 222.46204931 286.46484375 230.56640625 C287.43647461 232.16742187 287.43647461 232.16742187 288.42773438 233.80078125 C291.03167117 238.08778208 293.67531671 242.34960562 296.32666016 246.60742188 C296.96651855 247.66123047 297.60637695 248.71503906 298.265625 249.80078125 C298.84481689 250.74147461 299.42400879 251.68216797 300.02075195 252.65136719 C301.36607546 255.50459264 301.66464089 257.20524264 301.27734375 260.31640625 C295.12371837 267.08539417 284.34505798 271.20392046 276.40625 275.5078125 C271.93419788 277.94056247 267.52866034 280.46606439 263.15234375 283.06640625 C255.97386877 287.32713944 248.75924128 291.5219424 241.52734375 295.69140625 C240.40908203 296.3361792 239.29082031 296.98095215 238.13867188 297.64526367 C230.48168519 302.05579897 222.81032124 306.44062805 215.13232422 310.81445312 C207.28961635 315.29083642 199.49308283 319.84549488 191.70849609 324.42211914 C188.90486067 326.06547194 186.09169646 327.69149356 183.27734375 329.31640625 C182.30571289 329.89293945 181.33408203 330.46947266 180.33300781 331.06347656 C178.90166504 331.8886377 178.90166504 331.8886377 177.44140625 332.73046875 C176.59271973 333.22756348 175.7440332 333.7246582 174.86962891 334.23681641 C171.78916854 335.51971297 169.5840781 335.6630707 166.27734375 335.31640625 C164.36328125 333.2109375 164.36328125 333.2109375 162.65234375 330.12890625 C162.33313965 329.56880859 162.01393555 329.00871094 161.68505859 328.43164062 C160.95593228 327.14794362 160.23674606 325.85857065 159.52539062 324.56494141 C158.10600372 322.00771265 156.63973955 319.48055685 155.16796875 316.953125 C153.04189528 313.28760156 150.91665213 309.62180126 148.81640625 305.94140625 C148.37506348 305.17054688 147.9337207 304.3996875 147.47900391 303.60546875 C146.27734375 301.31640625 146.27734375 301.31640625 145.68115234 298.71484375 C143.69385952 295.31951077 141.40079051 295.0784634 137.72750854 294.03005981 C133.96861277 292.93521535 130.47383389 291.3163787 126.90625 289.71875 C126.12378403 289.37268204 125.34131805 289.02661407 124.53514099 288.6700592 C122.84959735 287.92435649 121.16480822 287.17694636 119.48071289 286.42797852 C114.89757982 284.39041848 110.30818401 282.36706901 105.71875 280.34375 C104.77029205 279.92539886 103.82183411 279.50704773 102.84463501 279.07601929 C93.02001995 274.74970654 83.15151927 270.52806072 73.27734375 266.31640625 C58.20225108 259.88322454 43.17535121 253.34788729 28.17919922 246.7328186 C16.57752046 241.61562589 4.95482781 236.56747636 -6.77539062 231.75024414 C-17.77784352 227.18079982 -26.73525432 223.0147653 -32.09765625 211.87890625 C-35.11783352 203.53200282 -35.42289449 193.00131728 -31.78515625 184.81640625 C-27.69157182 177.92011203 -21.21935121 172.21285657 -13.72265625 169.31640625 C-2.47414249 166.68325014 7.49254055 169.04837 18.33984375 172.31640625 C20.91232878 173.07251577 23.48728859 173.81958161 26.0625 174.56640625 C27.185354 174.9015625 28.30820801 175.23671875 29.46508789 175.58203125 C32.27669452 176.44273687 32.27669452 176.44273687 35.27734375 176.31640625 C25.6719322 158.95078153 25.6719322 158.95078153 15.60717773 141.8503418 C12.44481709 136.64213188 9.4170402 131.36124169 6.40234375 126.06640625 C5.89155273 125.16929932 5.38076172 124.27219238 4.85449219 123.34790039 C4.3443457 122.45192139 3.83419922 121.55594238 3.30859375 120.6328125 C0.52541998 115.74548165 -2.27869264 110.87067109 -5.09765625 106.00390625 C-5.54326904 105.23457764 -5.98888184 104.46524902 -6.44799805 103.67260742 C-9.50887689 98.39498738 -12.58627196 93.12714052 -15.66699219 87.86108398 C-18.69316666 82.68395216 -21.70851351 77.50054941 -24.72265625 72.31640625 C-25.42952196 71.10302572 -26.13639053 69.88964687 -26.84326172 68.67626953 C-28.66490474 65.54704694 -30.47843926 62.41322996 -32.28726196 59.27658081 C-32.98363951 58.07139292 -33.68228061 56.86750955 -34.38339233 55.66506958 C-41.21069541 43.94830097 -46.57277678 34.22420887 -44.72265625 20.31640625 C-43.51126715 16.62266245 -41.87980384 13.54020969 -39.72265625 10.31640625 C-39.33851563 9.73246094 -38.954375 9.14851563 -38.55859375 8.546875 C-29.724138 -3.32254685 -13.01090873 -6.05207586 0 0 Z M-32.72265625 18.31640625 C-34.39218861 21.16543757 -35.01734828 23.26599584 -35.03515625 26.56640625 C-35.05191406 27.2728125 -35.06867188 27.97921875 -35.0859375 28.70703125 C-33.95863698 36.8042006 -29.38784939 43.83733808 -25.41015625 50.81640625 C-24.79132568 51.91154541 -24.17249512 53.00668457 -23.53491211 54.13500977 C-18.20173511 63.54415654 -12.759182 72.88875604 -7.2890625 82.21875 C-3.56930713 88.5668724 0.10629624 94.94002738 3.77734375 101.31640625 C8.58566434 109.66450352 13.41635492 117.99886672 18.27734375 126.31640625 C23.83610848 135.82873513 29.3653776 145.35769544 34.84985352 154.91308594 C37.74751704 159.95788945 40.66522789 164.98564685 43.66796875 169.96875 C44.44394409 171.26848755 44.44394409 171.26848755 45.2355957 172.59448242 C46.18943954 174.18842017 47.15341051 175.77636221 48.12963867 177.35668945 C50.60680533 181.51834851 51.85126547 184.31621152 51.27734375 189.31640625 C45.86418777 190.43805118 41.98399214 189.99947846 36.83984375 188.25390625 C28.35392343 185.55590809 19.77593328 183.38796185 11.12524414 181.28491211 C10.13516357 181.04264893 9.14508301 180.80038574 8.125 180.55078125 C7.23820557 180.33647461 6.35141113 180.12216797 5.43774414 179.90136719 C3.27734375 179.31640625 3.27734375 179.31640625 1.27734375 178.31640625 C-5.19984917 177.49667851 -10.42376295 178.43628357 -15.72265625 182.31640625 C-20.93298456 187.32517447 -23.83731911 191.12145736 -24.03515625 198.50390625 C-23.94308431 205.4829596 -21.938354 210.39704757 -17.03515625 215.37890625 C-13.43736172 218.13626463 -9.5219001 219.74665399 -5.33984375 221.3984375 C1.46444761 224.1441483 8.21822237 226.98815535 14.9453125 229.91796875 C15.86944946 230.3202771 16.79358643 230.72258545 17.74572754 231.13708496 C20.65263006 232.40397939 23.55873025 233.67270311 26.46484375 234.94140625 C28.53043133 235.84158792 30.59610627 236.74156914 32.66186523 237.64135742 C36.72435773 239.41091598 40.78658937 241.18107104 44.84863281 242.95166016 C51.50824759 245.85361439 58.17304101 248.74350188 64.83984375 251.62890625 C74.38593713 255.76105777 83.92829451 259.90172235 93.46875 264.046875 C97.07605752 265.61377116 100.68339537 267.18059749 104.29074097 268.74740601 C106.67395577 269.7827537 109.05703567 270.818412 111.43997192 271.85440063 C114.81509917 273.32171154 118.19070986 274.7879053 121.56640625 276.25390625 C123.06954124 276.90790657 123.06954124 276.90790657 124.6030426 277.57511902 C126.52419852 278.40897958 128.447424 279.23809109 130.37286377 280.06201172 C132.42315056 280.94749503 134.46402567 281.85492589 136.4977417 282.77783203 C137.55342346 283.24560059 138.60910522 283.71336914 139.69677734 284.1953125 C140.64684662 284.62529541 141.59691589 285.05527832 142.57577515 285.49829102 C146.70606754 286.74906626 149.2508927 285.82276938 153.03442383 283.95629883 C154.02853271 283.38032959 155.0226416 282.80436035 156.046875 282.2109375 C157.17029297 281.56447266 158.29371094 280.91800781 159.45117188 280.25195312 C160.66415129 279.54442304 161.8770396 278.83673672 163.08984375 278.12890625 C164.35317734 277.39850311 165.61685406 276.66869318 166.88085938 275.93945312 C170.68533245 273.74142184 174.48210246 271.53032918 178.27734375 269.31640625 C179.33614746 268.69942871 180.39495117 268.08245117 181.48583984 267.44677734 C185.39186904 265.16948261 189.29678071 262.89030644 193.19897461 260.60644531 C200.8225738 256.14881769 208.48086863 251.75343469 216.15234375 247.37890625 C225.53998956 242.02564342 234.91728941 236.65529354 244.27734375 231.25390625 C245.30843262 230.65908447 246.33952148 230.0642627 247.40185547 229.45141602 C254.37204984 225.42639816 261.32791862 221.37716852 268.27734375 217.31640625 C267.82346426 205.61697079 266.41271274 194.14821599 264.78564453 182.55517578 C263.87523167 176.02359743 263.08277375 169.53030853 262.58984375 162.9543457 C262.0567703 156.16529437 261.27328554 150.72440603 257.23046875 145.0625 C254.57035172 141.32237545 252.36166277 137.36323556 250.08984375 133.37890625 C249.1233106 131.7038989 248.15585035 130.0294262 247.1875 128.35546875 C246.70168457 127.5140332 246.21586914 126.67259766 245.71533203 125.80566406 C243.92808095 122.71180802 242.13688345 119.62024935 240.34545898 116.52880859 C236.19740522 109.36978564 232.05738 102.20614918 227.92285156 95.03930664 C226.65712023 92.84547015 225.39084234 90.6519489 224.12402344 88.45874023 C221.15250316 83.31210029 218.18604455 78.16280406 215.24224854 73.0002594 C214.23754805 71.23897283 213.23088504 69.47882246 212.22363281 67.71899414 C210.96648086 65.52118596 209.71296273 63.3212934 208.46386719 61.11889648 C200.63626433 46.29889991 200.63626433 46.29889991 187.27734375 37.31640625 C179.38091163 36.59854878 174.30082213 37.79003611 167.58984375 42.00390625 C163.22328303 46.37046697 161.06467704 51.08687026 160.46484375 57.25390625 C160.83436921 67.13529087 167.74980797 76.10978645 172.69140625 84.34375 C173.06394531 84.9730542 173.43648437 85.6023584 173.8203125 86.25073242 C174.84245286 87.96590794 175.89115479 89.66517353 176.94140625 91.36328125 C178.42010094 94.63197477 178.404676 95.97157431 177.27734375 99.31640625 C172.52734375 100.31640625 172.52734375 100.31640625 170.27734375 100.31640625 C169.99753662 99.58244629 169.71772949 98.84848633 169.42944336 98.09228516 C168.37844301 95.55999568 167.21091573 93.27460193 165.84375 90.90234375 C165.36510498 90.06775635 164.88645996 89.23316895 164.39331055 88.37329102 C163.8806665 87.48826904 163.36802246 86.60324707 162.83984375 85.69140625 C161.75377973 83.81257313 160.66784514 81.93366519 159.58203125 80.0546875 C159.0312793 79.10287598 158.48052734 78.15106445 157.91308594 77.17041016 C156.344907 74.43428899 154.80991031 71.68238078 153.28515625 68.921875 C152.81005615 68.07254395 152.33495605 67.22321289 151.84545898 66.34814453 C150.95161604 64.74950128 150.06762805 63.14529111 149.19555664 61.53466797 C145.80493916 55.52941498 141.85688996 51.19866003 135.70703125 47.96484375 C129.84913127 46.40148138 122.81859511 46.05151542 117.33984375 48.94140625 C112.49987748 52.69484948 107.89287391 57.23672961 106.94140625 63.54296875 C106.92851563 64.33445312 106.915625 65.1259375 106.90234375 65.94140625 C106.87398437 66.71742188 106.845625 67.4934375 106.81640625 68.29296875 C108.20250087 77.3848097 113.37954849 85.3074363 118.02734375 93.06640625 C119.27484845 95.18222748 120.52224478 97.29811261 121.76953125 99.4140625 C123.41041337 102.1801335 125.05422407 104.94426089 126.70800781 107.70263672 C127.86428302 109.63169663 129.00916886 111.56706901 130.15234375 113.50390625 C130.76851562 114.52871094 131.3846875 115.55351562 132.01953125 116.609375 C133.34660895 119.465477 133.6415903 121.20927277 133.27734375 124.31640625 C132.27734375 125.31640625 132.27734375 125.31640625 129.50390625 125.828125 C126.27734375 125.31640625 126.27734375 125.31640625 123.92578125 122.3359375 C123.14519115 120.94614367 122.38907296 119.54244007 121.65234375 118.12890625 C121.02283813 116.99171143 121.02283813 116.99171143 120.38061523 115.83154297 C119.47260651 114.19104396 118.57343483 112.54562956 117.68212891 110.89599609 C115.30785614 106.53614798 112.81492649 102.24454349 110.33984375 97.94140625 C107.31237941 92.65149508 104.29696954 87.35555562 101.31640625 82.0390625 C100.3660545 80.36058134 99.41554039 78.68219209 98.46484375 77.00390625 C98.04533447 76.24609863 97.6258252 75.48829102 97.19360352 74.70751953 C93.08413772 67.49164159 87.61024191 58.9214482 79.27734375 56.31640625 C72.63855127 55.27131898 67.48894623 55.84699913 61.99609375 59.8203125 C57.75708928 63.51017321 53.72962636 67.86261175 52.9765625 73.61328125 C52.97269531 74.4228125 52.96882812 75.23234375 52.96484375 76.06640625 C52.94808594 76.865625 52.93132812 77.66484375 52.9140625 78.48828125 C53.78160387 85.24204416 57.02148018 90.9650428 60.52734375 96.69140625 C61.41541085 98.17106658 62.30202973 99.6515967 63.1875 101.1328125 C63.67492676 101.94637207 64.16235352 102.75993164 64.66455078 103.59814453 C67.81693769 108.91129559 70.88480222 114.27360823 73.96484375 119.62890625 C75.19763228 121.77099702 76.43069871 123.9129279 77.6640625 126.0546875 C78.25493652 127.08803223 78.84581055 128.12137695 79.45458984 129.18603516 C80.70358925 131.3310486 81.9843787 133.45777492 83.29150391 135.56787109 C83.93265137 136.61281738 84.57379883 137.65776367 85.234375 138.734375 C85.81807861 139.66403076 86.40178223 140.59368652 87.00317383 141.55151367 C88.46129362 144.71556937 88.59820195 146.87066818 88.27734375 150.31640625 C87.27734375 151.31640625 87.27734375 151.31640625 84.90039062 151.62280273 C82.27734375 151.31640625 82.27734375 151.31640625 80.66992188 149.68383789 C80.22068359 148.93481201 79.77144531 148.18578613 79.30859375 147.4140625 C78.80328125 146.58793457 78.29796875 145.76180664 77.77734375 144.91064453 C77.28234375 144.0545459 76.78734375 143.19844727 76.27734375 142.31640625 C75.59671875 141.16567627 75.59671875 141.16567627 74.90234375 139.99169922 C73.50301509 137.59219634 72.13727784 135.17593763 70.77734375 132.75390625 C69.72625677 130.89787291 68.67413149 129.04242726 67.62109375 127.1875 C67.07582031 126.2269873 66.53054688 125.26647461 65.96875 124.27685547 C63.1076063 119.26902802 60.19142323 114.29355439 57.27734375 109.31640625 C52.90322825 101.83917849 48.562895 94.34474853 44.27734375 86.81640625 C39.50613803 78.43509387 34.6585403 70.10067554 29.78491211 61.77856445 C26.51773726 56.18904276 23.27955276 50.58438478 20.078125 44.95703125 C19.72440826 44.33566788 19.37069153 43.7143045 19.0062561 43.07411194 C17.29016159 40.05810857 15.57755452 37.04019959 13.87011719 34.01928711 C10.85433421 28.70991366 7.79810908 23.4279453 4.60546875 18.22265625 C4.07985352 17.36349609 3.55423828 16.50433594 3.01269531 15.61914062 C-0.60343486 10.82069665 -5.42504894 7.94998587 -11.3046875 6.8203125 C-20.84829478 6.33653517 -27.42394333 10.6214601 -32.72265625 18.31640625 Z " transform="translate(479.72265625,362.68359375)" style="fill: #060505;"/><path d="M0 0 C1.82421875 2.28515625 1.82421875 2.28515625 3.6875 5.0625 C4.62142578 6.44115234 4.62142578 6.44115234 5.57421875 7.84765625 C6.04472656 8.55792969 6.51523437 9.26820313 7 10 C3.54104966 13.4659839 0.0646053 16.91321781 -3.421875 20.3515625 C-4.99429069 21.90918792 -6.56571966 23.46780132 -8.13671875 25.02685547 C-9.20325583 26.0833857 -10.27158752 27.13810772 -11.34179688 28.19091797 C-17.63612128 34.38604258 -23.55758209 40.65892664 -29.06933594 47.57910156 C-30.68354011 49.60318459 -32.3310216 51.56642665 -34.046875 53.50390625 C-73.67866232 98.26358498 -104.49473594 156.1909032 -120.01074219 213.77075195 C-122.98277196 223.47239011 -127.133218 230.78562306 -135.8203125 236.1171875 C-140.63589997 238.06758672 -145.93369745 237.68036677 -151 237 C-161.13430307 232.48109765 -167.15289164 221.47670157 -171.625 211.9375 C-177.14325704 200.54499769 -183.16612587 189.5302681 -189.50976562 178.57910156 C-190.85848038 176.24492353 -192.1898815 173.90195799 -193.515625 171.5546875 C-202.22237365 156.27356479 -211.84163229 141.00319325 -223.65625 127.92578125 C-224.0996875 127.29027344 -224.543125 126.65476562 -225 126 C-224 123 -224 123 -221.453125 121.578125 C-220.39609375 121.13984375 -219.3390625 120.7015625 -218.25 120.25 C-217.20328125 119.80140625 -216.1565625 119.3528125 -215.078125 118.890625 C-211.66988261 117.9044838 -210.29371406 117.74427151 -207 119 C-204.77438198 120.60150292 -202.78767598 122.18641852 -200.75 124 C-200.15227783 124.52327881 -199.55455566 125.04655762 -198.9387207 125.58569336 C-187.38987229 135.84886774 -176.45109829 146.7657562 -167 159 C-166.31808594 159.82628906 -165.63617188 160.65257812 -164.93359375 161.50390625 C-160.63967266 166.71038742 -156.93132503 172.06736105 -153.4453125 177.84765625 C-152.17872014 180.11615392 -152.17872014 180.11615392 -150 181 C-149.8457959 180.4743042 -149.6915918 179.9486084 -149.53271484 179.40698242 C-147.5387463 172.99959437 -144.76654841 167.23001631 -141.625 161.3125 C-140.83488525 159.81517334 -140.83488525 159.81517334 -140.02880859 158.28759766 C-121.26912074 123.0778735 -98.38431589 90.46084939 -72.375 60.25 C-71.5854895 59.32888428 -71.5854895 59.32888428 -70.7800293 58.38916016 C-67.5099432 54.61484887 -64.095321 51.05112482 -60.54003906 47.54492188 C-58.81754737 45.81696889 -57.23919181 44.00710597 -55.6875 42.125 C-52.28342833 38.18264528 -48.54433777 34.76092628 -44.6328125 31.328125 C-42.93444904 29.82630805 -41.2601851 28.29656944 -39.6171875 26.734375 C-33.6644698 21.09888677 -27.36301969 16.10846575 -20.8125 11.1875 C-19.96896973 10.55312012 -19.12543945 9.91874023 -18.25634766 9.26513672 C-14.42288506 6.41770122 -10.55562445 3.62588297 -6.57421875 0.98828125 C-5.95506592 0.57747314 -5.33591309 0.16666504 -4.69799805 -0.2565918 C-3 -1 -3 -1 0 0 Z " transform="translate(341,181)" style="fill: #99B83D;"/><path d="M0 0 C2.63426666 1.04709008 4.04745736 2.42195263 6.04190063 4.43634033 C7.18263031 5.5774099 7.18263031 5.5774099 8.34640503 6.74153137 C9.1569635 7.5675737 9.96752197 8.39361603 10.80264282 9.24468994 C12.0593277 10.50774208 12.0593277 10.50774208 13.34140015 11.79631042 C16.01788614 14.48960052 18.68375839 17.19313029 21.34951782 19.89703369 C23.1613288 21.72388917 24.97382056 23.55006974 26.78701782 25.37554932 C31.23244962 29.85407347 35.66920943 34.34105115 40.09951782 38.83453369 C45.32900527 34.46424004 50.20241737 29.86541566 55.00186157 25.02984619 C55.72442642 24.30586639 56.44699127 23.5818866 57.19145203 22.83596802 C59.47568704 20.54618105 61.75640095 18.25292376 64.03701782 15.95953369 C65.59472821 14.39680209 67.15266869 12.83429979 68.71084595 11.27203369 C72.50973384 7.46218059 76.30574496 3.6494799 80.09951782 -0.16546631 C83.91201662 1.6104003 86.33301278 3.83818557 89.30264282 6.84234619 C89.78529602 7.32782928 90.26794922 7.81331238 90.76522827 8.31350708 C92.29810344 9.85753235 93.82385786 11.40838193 95.34951782 12.95953369 C96.39072143 14.01077378 97.43238323 15.06156026 98.47451782 16.11187744 C101.02151246 18.68086373 103.56216959 21.2560153 106.09951782 23.83453369 C101.6653511 29.14522174 96.98435096 34.08289986 92.07608032 38.95562744 C91.32990448 39.70038834 90.58372864 40.44514923 89.81494141 41.21247864 C87.45382393 43.56804196 85.0892362 45.92008585 82.72451782 48.27203369 C81.11360927 49.87792132 79.50292986 51.48403885 77.89248657 53.09039307 C73.9641427 57.00776882 70.03295108 60.92226857 66.09951782 64.83453369 C67.05138475 65.95172648 68.00420696 67.0681054 68.95742798 68.18414307 C69.75317734 69.11679993 69.75317734 69.11679993 70.56500244 70.06829834 C72.45457618 72.24320775 74.43367466 74.30127731 76.47451782 76.33453369 C77.1628772 77.02547119 77.85123657 77.71640869 78.56045532 78.42828369 C80.60918281 80.36984698 82.6882394 82.21715375 84.82608032 84.05718994 C89.46364981 88.08754902 93.78108523 92.40495325 98.09951782 96.77203369 C98.87424438 97.55127197 99.64897095 98.33051025 100.44717407 99.13336182 C102.33362539 101.0314579 104.21768028 102.93186518 106.09951782 104.83453369 C104.51478202 108.69781996 102.03994895 111.12330292 99.09170532 114.03765869 C98.60622223 114.52031189 98.12073914 115.00296509 97.62054443 115.50024414 C96.07651916 117.03311931 94.52566958 118.55887373 92.97451782 120.08453369 C91.92327773 121.1257373 90.87249125 122.1673991 89.82217407 123.20953369 C87.25318779 125.75652833 84.67803621 128.29718546 82.09951782 130.83453369 C76.78882978 126.40036697 71.85115165 121.71936683 66.97842407 116.81109619 C66.23366318 116.06492035 65.48890228 115.31874451 64.72157288 114.54995728 C62.36600955 112.1888398 60.01396566 109.82425207 57.66201782 107.45953369 C56.05613019 105.84862513 54.45001266 104.23794573 52.84365845 102.62750244 C48.9262827 98.69915856 45.01178295 94.76796695 41.09951782 90.83453369 C35.78882978 95.26870041 30.85115165 99.94970056 25.97842407 104.85797119 C24.86128273 105.97723495 24.86128273 105.97723495 23.72157288 107.11911011 C21.36600955 109.48022758 19.01396566 111.84481531 16.66201782 114.20953369 C15.05613019 115.82044225 13.45001266 117.43112165 11.84365845 119.04156494 C7.9262827 122.96990882 4.01178295 126.90110043 0.09951782 130.83453369 C-3.91339946 127.45286635 -7.82144803 124.03823232 -11.52157593 120.31109619 C-12.7059021 119.12193604 -12.7059021 119.12193604 -13.91415405 117.90875244 C-15.11394897 116.69638916 -15.11394897 116.69638916 -16.33798218 115.45953369 C-17.16491577 114.62808838 -17.99184937 113.79664307 -18.84384155 112.94000244 C-20.86503749 110.90712329 -22.88384553 108.87193406 -24.90048218 106.83453369 C-23.48146556 103.60707845 -21.77192453 101.46195262 -19.27694702 98.98394775 C-18.53633026 98.24348206 -17.7957135 97.50301636 -17.03265381 96.7401123 C-16.23364655 95.95142761 -15.43463928 95.16274292 -14.61141968 94.35015869 C-13.38378403 93.12676788 -13.38378403 93.12676788 -12.13134766 91.87866211 C-9.51738244 89.27588807 -6.89654713 86.68015607 -4.27548218 84.08453369 C-2.50158764 82.3206703 -0.72814452 80.55635279 1.04483032 78.79156494 C5.39116925 74.46727233 9.74316863 70.14874039 14.09951782 65.83453369 C12.68050121 62.60707845 10.97096017 60.46195262 8.47598267 57.98394775 C7.73536591 57.24348206 6.99474915 56.50301636 6.23168945 55.7401123 C5.43268219 54.95142761 4.63367493 54.16274292 3.81045532 53.35015869 C2.99203156 52.53456482 2.17360779 51.71897095 1.3303833 50.87866211 C-1.28358191 48.27588807 -3.90441723 45.68015607 -6.52548218 43.08453369 C-8.29937672 41.3206703 -10.07281984 39.55635279 -11.84579468 37.79156494 C-16.1921336 33.46727233 -20.54413298 29.14874039 -24.90048218 24.83453369 C-22.36051448 19.42864246 -18.17908057 15.70370082 -13.99716187 11.50567627 C-12.52482802 10.02137422 -11.07217588 8.51943111 -9.61923218 7.01617432 C-8.6936853 6.0835376 -7.76813843 5.15090088 -6.81454468 4.19000244 C-5.54538208 2.90065796 -5.54538208 2.90065796 -4.25057983 1.58526611 C-1.90048218 -0.16546631 -1.90048218 -0.16546631 0 0 Z " transform="translate(200.90048217773438,601.1654663085938)" style="fill: #FEFDFD;"/><path d="M0 0 C2.36416899 2.18671634 3.95502708 4.38104437 5.55859375 7.16796875 C6.02716797 7.97943359 6.49574219 8.79089844 6.97851562 9.62695312 C7.45998047 10.47193359 7.94144531 11.31691406 8.4375 12.1875 C9.15389648 13.4259668 9.15389648 13.4259668 9.88476562 14.68945312 C12.77110168 19.71381588 15.45928053 24.79242606 18 30 C17.2879541 30.40613525 16.5759082 30.81227051 15.84228516 31.23071289 C-0.39045455 40.49191534 -16.60059805 49.7907986 -32.78222656 59.14111328 C-37.10361267 61.63754984 -41.42650057 64.13137882 -45.74951172 66.625 C-47.9048931 67.86830247 -50.06016773 69.11179003 -52.21533203 70.35546875 C-57.23714821 73.25334358 -62.25958549 76.15012411 -67.28442383 79.04275513 C-69.05045522 80.05947198 -70.81627431 81.07655658 -72.58203125 82.09375 C-74.78734155 83.36400873 -76.99304216 84.63359018 -79.19921875 85.90234375 C-80.20597656 86.48242188 -81.21273437 87.0625 -82.25 87.66015625 C-83.21292969 88.2133252 -84.17585937 88.76649414 -85.16796875 89.33642578 C-87.08386121 90.46184744 -88.98222025 91.61757266 -90.86328125 92.80029297 C-92.19939453 93.63971436 -92.19939453 93.63971436 -93.5625 94.49609375 C-94.74005859 95.25490845 -94.74005859 95.25490845 -95.94140625 96.02905273 C-98 97 -98 97 -101 96 C-102.7175293 93.54736328 -102.7175293 93.54736328 -104.57421875 90.3203125 C-105.0672625 89.4674617 -105.0672625 89.4674617 -105.57026672 88.59738159 C-106.26289855 87.39442039 -106.95104238 86.1888656 -107.63500977 84.98095703 C-108.68314792 83.13267443 -109.74754325 81.29452817 -110.81445312 79.45703125 C-116 70.41395756 -116 70.41395756 -116 67 C-105.1328125 60.73046875 -94.265625 54.4609375 -83.3984375 48.19140625 C-82.34019775 47.58087402 -81.28195801 46.9703418 -80.19165039 46.34130859 C-78.05024405 45.10590076 -75.90880484 43.87054991 -73.76733398 42.63525391 C-68.28552828 39.47300652 -62.80432171 36.30972865 -57.32421875 33.14453125 C-47.20804441 27.302943 -37.08690345 21.47119503 -26.9375 15.6875 C-17.90860804 10.54182601 -8.94103566 5.29665547 0 0 Z " transform="translate(751,589)" style="fill: #F57F11;"/><path d="M0 0 C4.75870004 3.01183547 7.95949638 7.23260083 10.2890625 12.296875 C11.6339353 21.56155429 12.45291177 31.17229408 6.8515625 39.171875 C2.60626619 43.9311297 -1.7949039 46.72515047 -8.2421875 47.38671875 C-15.10903523 47.68067627 -20.54567268 46.30140985 -25.8984375 41.921875 C-31.05578195 35.61845401 -32.79595284 31.26238066 -32.5859375 23.234375 C-32.59302734 22.47447266 -32.60011719 21.71457031 -32.60742188 20.93164062 C-32.53890679 14.76001221 -31.47789923 9.03126168 -27.5 4.1484375 C-26.93023438 3.70242188 -26.36046875 3.25640625 -25.7734375 2.796875 C-25.20882812 2.33539063 -24.64421875 1.87390625 -24.0625 1.3984375 C-16.96008488 -3.15290607 -7.70258571 -3.35997566 0 0 Z " transform="translate(875.1484375,461.828125)" style="fill: #F9F9F9;"/><path d="M0 0 C4.64816496 2.8488753 7.09247713 7.45830157 8.4375 12.625 C8.4375 16.255 8.4375 19.885 8.4375 23.625 C-2.4525 23.625 -13.3425 23.625 -24.5625 23.625 C-22.79901919 34.70049967 -22.79901919 34.70049967 -19.0625 38.375 C-13.37339412 40.40682353 -7.58115912 40.59986442 -1.8046875 38.734375 C0.85130593 37.42025978 1.43484298 36.35951915 2.4375 33.625 C4.0875 33.955 5.7375 34.285 7.4375 34.625 C7.35401691 37.46342501 6.8651272 39.16549314 4.91796875 41.2578125 C-1.84550787 47.15271634 -7.74254151 47.21086681 -16.5625 46.625 C-21.71054497 45.48199001 -25.24904529 42.67477798 -28.5625 38.625 C-32.81914324 29.95969054 -34.20561514 21.13690075 -31.3125 11.75 C-29.19733712 6.25645198 -26.20331099 2.17291834 -20.87890625 -0.64453125 C-14.39752071 -2.68840831 -6.33459616 -2.52902128 0 0 Z " transform="translate(871.5625,218.375)" style="fill: #080808;"/><path d="M0 0 C4.56612894 1.5436834 6.97363127 4.53453713 9.4375 8.5625 C11 13 11 13 11 25 C0.11 25 -10.78 25 -22 25 C-20.09564016 35.56587843 -20.09564016 35.56587843 -15 40 C-11.07979559 41.96010221 -6.28388424 41.3528633 -2 41 C1.74030185 39.39701349 2.73158465 38.40262302 5 35 C7.4375 35.375 7.4375 35.375 10 36 C10.33 36.66 10.66 37.32 11 38 C8.27330199 42.7989885 5.504239 46.40808774 0 48 C-7.62717877 48.74106868 -14.30579604 49.10628773 -21 45 C-22.828125 43.38671875 -22.828125 43.38671875 -24.25 41.6875 C-24.72953125 41.13449219 -25.2090625 40.58148437 -25.703125 40.01171875 C-30.49763631 32.5744497 -30.01906094 22.5113118 -29 14 C-27.08064763 8.14309214 -22.85872107 4.56306212 -18 1 C-12.99387913 -1.50306044 -5.46212208 -0.46555253 0 0 Z " transform="translate(879,704)" style="fill: #080808;"/><path d="M0 0 C1.134375 0.020625 2.26875 0.04125 3.4375 0.0625 C2.6456595 4.7030536 1.24454127 9.08955824 -0.1875 13.5625 C-0.58074463 14.8002417 -0.58074463 14.8002417 -0.98193359 16.06298828 C-3.28249946 23.26764105 -5.67651052 30.44028247 -8.08520508 37.609375 C-10.07095093 43.53491625 -11.95866756 49.47765233 -13.73828125 55.46875 C-14.5612962 58.05871173 -15.52147364 60.55312643 -16.5625 63.0625 C-19.8625 63.0625 -23.1625 63.0625 -26.5625 63.0625 C-27.0157666 61.84369141 -27.4690332 60.62488281 -27.93603516 59.36914062 C-29.64675507 54.76928754 -31.35776194 50.16954124 -33.06884766 45.56982422 C-33.8039498 43.59361554 -34.53897808 41.6173794 -35.27392578 39.64111328 C-35.98795062 37.72113654 -36.70212224 35.80121437 -37.41644287 33.88134766 C-38.12165579 31.98540532 -38.82628893 30.08924723 -39.53033447 28.19287109 C-41.14358728 23.85187183 -42.76649674 19.51541586 -44.42480469 15.19140625 C-44.70722015 14.45152466 -44.98963562 13.71164307 -45.28060913 12.94934082 C-45.80130768 11.58793579 -46.32596492 10.22803535 -46.8553772 8.86999512 C-47.91466076 6.09434283 -48.5625 4.06589457 -48.5625 1.0625 C-46.2525 1.0625 -43.9425 1.0625 -41.5625 1.0625 C-38.73729476 7.22207623 -36.21714845 13.44123055 -33.890625 19.8046875 C-33.56334412 20.69487579 -33.23606323 21.58506409 -32.89886475 22.50222778 C-32.21500978 24.36548806 -31.53275586 26.22933667 -30.85205078 28.09375 C-29.80694354 30.9527 -28.75333061 33.80842212 -27.69921875 36.6640625 C-27.03333835 38.48158194 -26.36795574 40.29928384 -25.703125 42.1171875 C-25.38756653 42.9702951 -25.07200806 43.82340271 -24.74688721 44.70236206 C-24.45948669 45.49393707 -24.17208618 46.28551208 -23.87597656 47.10107422 C-23.62156799 47.79562714 -23.36715942 48.49018005 -23.1050415 49.20578003 C-22.5625 51.0625 -22.5625 51.0625 -22.5625 54.0625 C-21.9025 54.0625 -21.2425 54.0625 -20.5625 54.0625 C-20.41554688 52.88107422 -20.41554688 52.88107422 -20.265625 51.67578125 C-19.36272125 47.03585921 -17.85486861 42.71132966 -16.3125 38.25 C-14.00783908 31.47339683 -11.79684641 24.69006425 -9.8125 17.8125 C-4.69085268 0.08229566 -4.69085268 0.08229566 0 0 Z " transform="translate(883.5625,322.9375)" style="fill: #0A0A0A;"/><path d="M0 0 C4.75870004 3.01183547 7.95949638 7.23260083 10.2890625 12.296875 C11.6339353 21.56155429 12.45291177 31.17229408 6.8515625 39.171875 C2.60626619 43.9311297 -1.7949039 46.72515047 -8.2421875 47.38671875 C-15.10903523 47.68067627 -20.54567268 46.30140985 -25.8984375 41.921875 C-31.05578195 35.61845401 -32.79595284 31.26238066 -32.5859375 23.234375 C-32.59302734 22.47447266 -32.60011719 21.71457031 -32.60742188 20.93164062 C-32.53890679 14.76001221 -31.47789923 9.03126168 -27.5 4.1484375 C-26.93023438 3.70242188 -26.36046875 3.25640625 -25.7734375 2.796875 C-25.20882812 2.33539063 -24.64421875 1.87390625 -24.0625 1.3984375 C-16.96008488 -3.15290607 -7.70258571 -3.35997566 0 0 Z M-22.1484375 8.171875 C-25.0669534 12.7951315 -25.6140073 16.8181932 -25.5234375 22.171875 C-25.53503906 22.85765625 -25.54664063 23.5434375 -25.55859375 24.25 C-25.52496726 30.1234261 -23.88535423 34.04275127 -20.2109375 38.546875 C-15.33037305 41.13656226 -10.54952997 40.88177469 -5.1484375 40.171875 C-1.08426314 38.38934239 0.35822465 36.94477096 2.7265625 33.234375 C5.134532 26.54396872 5.13651904 18.1111189 2.2265625 11.609375 C0.03469844 7.99699974 -2.24670521 5.93869717 -6.1484375 4.171875 C-12.55707403 3.04919415 -17.01467916 4.27021866 -22.1484375 8.171875 Z " transform="translate(875.1484375,461.828125)" style="fill: #090909;"/><path d="M0 0 C1.423125 0.4021875 1.423125 0.4021875 2.875 0.8125 C5.94980072 6.96210144 2.02577305 16.50687595 0.125 22.6875 C-1.98206064 29.77816754 -3.94034645 36.87461208 -5.6875 44.0625 C-7.28364922 50.5470966 -8.93425105 57.0105325 -10.75 63.4375 C-11.04112671 64.51306152 -11.04112671 64.51306152 -11.33813477 65.61035156 C-12.4174668 69.34203112 -12.78089319 70.58309546 -16.125 72.8125 C-19.44740324 72.4883631 -20.73276303 72.20473697 -23.125 69.8125 C-23.29062977 63.99352531 -21.58535743 58.21565099 -19.9375 52.6875 C-19.48381364 51.11381728 -19.03208836 49.53956824 -18.58203125 47.96484375 C-18.34436035 47.13452637 -18.10668945 46.30420898 -17.86181641 45.44873047 C-16.54425301 40.73466501 -15.34328605 35.99048288 -14.125 31.25 C-12.28674364 24.17153465 -10.43267832 17.09857307 -8.4375 10.0625 C-8.24736328 9.36568115 -8.05722656 8.6688623 -7.86132812 7.95092773 C-5.46345061 -0.32780704 -5.46345061 -0.32780704 0 0 Z " transform="translate(489.125,268.1875)" style="fill: #080808;"/><path d="M0 0 C6.17719413 0.73128343 12.1000631 2.16084103 18.125 3.6875 C19.17743896 3.95224121 20.22987793 4.21698242 21.31420898 4.48974609 C29.98865519 6.69466125 38.59155506 9.11311285 47.18359375 11.6171875 C52.81178896 13.25157852 58.48100545 14.7104517 64.1640625 16.140625 C67 17 67 17 70 19 C70.3125 22 70.3125 22 70 25 C68 27 68 27 65.09765625 27.3125 C59.69983745 27.14585779 54.59863486 25.4680214 49.4375 24 C47.12784367 23.35851206 44.81793692 22.71792522 42.5078125 22.078125 C41.29383789 21.73974609 40.07986328 21.40136719 38.82910156 21.05273438 C34.84912112 19.95851889 30.86082588 18.90229608 26.8671875 17.859375 C25.51114308 17.50392919 24.15510462 17.1484606 22.79907227 16.79296875 C20.18864677 16.10899575 17.57704806 15.43018248 14.96459961 14.75390625 C2.93348355 11.58420567 2.93348355 11.58420567 -2 9 C-3.125 6.5625 -3.125 6.5625 -3 4 C-1.5625 1.6875 -1.5625 1.6875 0 0 Z " transform="translate(350,346)" style="fill: #080808;"/><path d="M0 0 C2 2 2 2 2.4375 4.375 C2 7 2 7 0.07421875 8.81640625 C-3.99741982 11.70845957 -8.2705619 14.12404635 -12.625 16.5625 C-14.51461498 17.63099407 -16.40393162 18.7000159 -18.29296875 19.76953125 C-19.24606934 20.30787598 -20.19916992 20.8462207 -21.18115234 21.40087891 C-25.44968654 23.82240142 -29.69364527 26.28557391 -33.9375 28.75 C-35.10394043 29.42361572 -35.10394043 29.42361572 -36.29394531 30.11083984 C-39.9183381 32.20419939 -43.53157113 34.31217138 -47.12109375 36.46484375 C-47.75861572 36.8422168 -48.3961377 37.21958984 -49.05297852 37.60839844 C-50.74530418 38.61068699 -52.43151339 39.62328335 -54.1171875 40.63671875 C-57.0881758 42.04169831 -58.76747795 42.40689089 -62 42 C-63.875 40.8125 -63.875 40.8125 -65 39 C-64.76912183 36.04048066 -64.52614599 34.49836449 -62.34008789 32.42773438 C-61.62071045 31.98751953 -60.90133301 31.54730469 -60.16015625 31.09375 C-59.34305176 30.5884375 -58.52594727 30.083125 -57.68408203 29.5625 C-52.96614953 26.81602301 -48.22143989 24.12997972 -43.4375 21.5 C-36.64854893 17.74999019 -29.89328841 13.96722305 -23.2421875 9.9765625 C-22.16267822 9.33138672 -21.08316895 8.68621094 -19.97094727 8.02148438 C-17.90500863 6.78099498 -15.84528544 5.53007977 -13.79272461 4.26757812 C-12.8569458 3.70748047 -11.92116699 3.14738281 -10.95703125 2.5703125 C-10.14210205 2.07289551 -9.32717285 1.57547852 -8.48754883 1.06298828 C-5.45758191 -0.23178804 -3.26394188 -0.33117787 0 0 Z " transform="translate(423,398)" style="fill: #060606;"/><path d="M0 0 C2.375 0.0625 2.375 0.0625 5 1 C8.24358367 4.59958676 10.57350408 8.57870306 12.875 12.8125 C16.83587406 19.97736063 20.92740298 27.05938488 25.0625 34.125 C25.66312256 35.15641113 26.26374512 36.18782227 26.88256836 37.25048828 C29.46134863 41.67721182 32.04703532 46.09653449 34.7109375 50.47265625 C35.09499756 51.11380371 35.47905762 51.75495117 35.87475586 52.41552734 C36.85337097 54.04722697 37.84596648 55.67052023 38.83984375 57.29296875 C40.18968041 60.44258763 40.23400802 61.82448602 39 65 C36 67 36 67 33.49438477 66.88574219 C30.34704267 65.76813848 29.71635242 64.70823402 28.08984375 61.828125 C27.58098633 60.94656738 27.07212891 60.06500977 26.54785156 59.15673828 C26.01643555 58.19751465 25.48501953 57.23829102 24.9375 56.25 C24.37385742 55.26370605 23.81021484 54.27741211 23.22949219 53.26123047 C22.05397355 51.20062703 20.88561649 49.13592313 19.72412109 47.06738281 C18.10003915 44.1779796 16.4555871 41.30157968 14.80078125 38.4296875 C12.79200465 34.94263452 10.79762797 31.44809118 8.81640625 27.9453125 C6.98409784 24.70989642 5.11759746 21.49915075 3.21484375 18.3046875 C2.57240723 17.21003174 2.57240723 17.21003174 1.91699219 16.09326172 C1.12315187 14.74171548 0.31852088 13.39642304 -0.49902344 12.05908203 C-2.12081444 9.26951115 -3.02313092 7.45011526 -2.85546875 4.1875 C-2 2 -2 2 0 0 Z " transform="translate(402,279)" style="fill: #070707;"/><path d="M0 0 C2 2 2 2 2.28125 5.23046875 C0.27746772 11.12574284 -4.15333445 12.58018116 -9.5 15.3125 C-11.61788718 16.44921818 -13.73507008 17.58724948 -15.8515625 18.7265625 C-16.89989258 19.28118164 -17.94822266 19.83580078 -19.02832031 20.40722656 C-23.04376465 22.55944139 -26.9634701 24.85331314 -30.875 27.1875 C-31.54378174 27.58090576 -32.21256348 27.97431152 -32.90161133 28.37963867 C-36.49626254 30.49534269 -40.06332248 32.64994856 -43.61328125 34.83984375 C-44.37850098 35.30559814 -45.1437207 35.77135254 -45.93212891 36.2512207 C-47.39300961 37.14106436 -48.84760998 38.04133587 -50.29443359 38.95385742 C-54.31161654 41.3864467 -57.15449718 42.73220931 -62 42 C-64 40 -64 40 -64.28125 36.76953125 C-62.27746772 30.87425716 -57.84666555 29.41981884 -52.5 26.6875 C-50.38211282 25.55078182 -48.26492992 24.41275052 -46.1484375 23.2734375 C-45.10010742 22.71881836 -44.05177734 22.16419922 -42.97167969 21.59277344 C-38.95623535 19.44055861 -35.0365299 17.14668686 -31.125 14.8125 C-30.45621826 14.41909424 -29.78743652 14.02568848 -29.09838867 13.62036133 C-25.50373746 11.50465731 -21.93667752 9.35005144 -18.38671875 7.16015625 C-17.62149902 6.69440186 -16.8562793 6.22864746 -16.06787109 5.7487793 C-14.60699039 4.85893564 -13.15239002 3.95866413 -11.70556641 3.04614258 C-7.68838346 0.6135533 -4.84550282 -0.73220931 0 0 Z " transform="translate(558,320)" style="fill: #060606;"/><path d="M0 0 C0 3.63 0 7.26 0 11 C4.95 11 9.9 11 15 11 C15 12.98 15 14.96 15 17 C10.05 17 5.1 17 0 17 C0.0740799 21.34261485 0.15696712 25.68319814 0.26245117 30.02490234 C0.29565355 31.50103138 0.32370017 32.97728594 0.34643555 34.45361328 C0.38006951 36.57899332 0.43238519 38.70322804 0.48828125 40.828125 C0.51446533 42.1059082 0.54064941 43.38369141 0.56762695 44.70019531 C1.01945677 48.14849106 1.47679944 49.63860422 4 52 C8.17935717 52.38697752 11.93183621 51.98622152 16 51 C16.33 52.98 16.66 54.96 17 57 C11.64645246 59.41054853 6.80156747 59.83365632 1 59 C-2.37803424 57.38441841 -4.40924783 55.14393403 -6.14013672 51.79223633 C-7.22738879 48.26159978 -7.22474334 45.20528894 -7.1953125 41.51171875 C-7.1924826 40.80852005 -7.18965271 40.10532135 -7.18673706 39.3808136 C-7.17560151 37.14953108 -7.15050997 34.91865983 -7.125 32.6875 C-7.1149616 31.16862562 -7.10583726 29.6497449 -7.09765625 28.13085938 C-7.07568413 24.42044079 -7.04120047 20.71026058 -7 17 C-9.64 17 -12.28 17 -15 17 C-15 15.35 -15 13.7 -15 12 C-12.36 12 -9.72 12 -7 12 C-7 8.37 -7 4.74 -7 1 C-2 0 -2 0 0 0 Z " transform="translate(866,571)" style="fill: #0B0B0B;"/><path d="M0 0 C3.57557806 2.00232371 5.72990507 4.07425204 7 8 C7 9.98 7 11.96 7 14 C-1.58 14 -10.16 14 -19 14 C-19 7.80505708 -18.6512315 6.59011959 -15 2 C-10.33459182 -1.11027212 -5.46304595 -0.60536455 0 0 Z " transform="translate(866,223)" style="fill: #F3F3F3;"/><path d="M0 0 C3.53926484 1.29813866 3.8919547 1.79548568 5.75 5.3125 C7 9 7 9 7 14 C-1.58 14 -10.16 14 -19 14 C-17.75856129 5.30992904 -17.75856129 5.30992904 -14.08203125 1.3203125 C-9.85542565 -1.35997398 -4.78206708 -0.75260944 0 0 Z " transform="translate(876,710)" style="fill: #F5F5F5;"/></svg>