<svg version="1.1" id="Layer_1" xmlns="http://www.w3.org/2000/svg" xmlns:xlink="http://www.w3.org/1999/xlink" x="0px" y="0px"
	 width="100%" viewBox="0 0 1024 1024" enable-background="new 0 0 1024 1024" xml:space="preserve">
<path fill="#000000" opacity="1.000000" stroke="none" 
	d="
M285.000000,559.742920 
	C298.298218,560.187195 311.152252,558.695496 323.901550,560.677490 
	C338.054474,562.877686 349.323853,576.071106 349.332855,590.422241 
	C349.364929,641.562073 349.370880,692.701904 349.345978,743.841736 
	C349.338257,759.703064 335.480530,774.191101 319.507690,774.251282 
	C268.035522,774.445251 216.561523,774.463074 165.089600,774.237976 
	C148.449738,774.165222 135.076584,759.921936 134.967422,741.806274 
	C134.667328,692.001038 134.656723,642.191528 134.964661,592.386414 
	C135.086182,572.730530 149.032471,559.779053 169.060623,559.736206 
	C207.540237,559.653809 246.020187,559.731506 285.000000,559.742920 
M304.056366,623.270142 
	C298.561707,617.693115 292.864624,612.297485 287.645233,606.473755 
	C284.294647,602.735291 282.036621,603.314087 278.825562,606.621948 
	C268.036743,617.736023 256.905365,628.517883 246.126892,639.641724 
	C243.190079,642.672607 241.454529,642.607117 238.533173,639.586548 
	C227.533142,628.212891 216.199905,617.162292 205.119324,605.865234 
	C202.427383,603.120728 200.457458,602.961731 197.761154,605.870178 
	C192.894470,611.119934 187.684448,616.049622 182.692673,621.185669 
	C178.443024,625.558228 178.398819,626.644897 182.725723,631.051636 
	C193.226868,641.746582 203.729965,652.443298 214.439713,662.927368 
	C217.569458,665.991211 218.140656,667.898071 214.601807,671.279785 
	C203.645721,681.749329 193.170914,692.720764 182.308716,703.291260 
	C178.704727,706.798401 178.800232,709.414185 182.419357,712.765991 
	C187.546707,717.514587 192.501190,722.477173 197.212860,727.637573 
	C200.258591,730.973389 202.408554,731.117371 205.668549,727.749695 
	C216.325989,716.740356 227.469833,706.198059 238.011780,695.082642 
	C241.695541,691.198486 243.620438,691.760681 247.001068,695.285950 
	C257.488495,706.222229 268.448486,716.704102 278.999817,727.580811 
	C282.178101,730.857117 284.511261,730.985168 287.606812,727.688965 
	C292.280212,722.712708 297.234192,718.000916 302.029846,713.138184 
	C306.713623,708.388855 306.753265,707.689941 302.145569,703.063049 
	C291.566650,692.439819 281.058197,681.740479 270.241516,671.363525 
	C266.844940,668.104980 267.046967,666.171082 270.294373,663.015015 
	C281.521759,652.103271 292.462433,640.896851 303.540314,629.830750 
	C305.385498,627.987549 307.399872,626.289185 304.056366,623.270142 
z"/>
<path fill="#000000" opacity="1.000000" stroke="none" 
	d="
M766.758301,633.861328 
	C729.922485,655.080444 693.398132,676.104919 656.884949,697.148987 
	C649.277588,701.533386 647.820312,701.186340 643.497192,693.746155 
	C638.224426,684.671814 632.775879,675.694397 627.731262,666.495239 
	C625.348083,662.149292 622.064819,659.493103 617.558533,657.552490 
	C573.661011,638.648376 529.833496,619.581787 485.976135,600.584290 
	C479.101990,597.606628 472.190765,594.713379 465.274963,591.833252 
	C450.284668,585.590271 442.534454,569.025574 447.391602,553.538818 
	C452.343079,537.751343 468.237640,528.606445 484.390503,532.474854 
	C494.549774,534.907837 504.627563,537.681091 515.092529,540.392517 
	C515.214539,537.924072 513.968018,536.320801 513.026978,534.693420 
	C489.594666,494.169769 466.215515,453.614899 442.609711,413.192413 
	C436.855835,403.339478 432.962830,393.429596 436.885834,381.963348 
	C440.997009,369.946899 449.627625,362.744110 461.904846,360.933655 
	C474.566315,359.066559 485.694855,363.265533 492.596680,374.376678 
	C502.788239,390.783966 512.124207,407.722656 521.826294,424.434021 
	C522.654724,425.860962 523.496460,427.280182 524.809509,429.516205 
	C530.029541,418.678772 537.909302,411.607513 549.322754,409.902985 
	C560.486572,408.235718 570.445068,411.370422 578.604553,420.538940 
	C583.597473,409.673187 591.179016,402.638245 602.710938,400.396667 
	C614.393250,398.125885 623.909302,402.265656 632.104004,409.947906 
	C633.854004,409.768951 633.957703,408.373657 634.477356,407.429535 
	C646.788513,385.063080 676.524658,383.812714 689.549683,405.704590 
	C710.246765,440.491669 730.348511,475.636414 750.374390,510.816467 
	C754.210388,517.555237 753.228821,525.728516 754.243286,533.257751 
	C756.239014,548.070740 757.776855,562.944946 759.618469,577.779663 
	C759.924072,580.240967 760.958252,582.535400 762.254639,584.734741 
	C768.344910,595.067444 774.331360,605.461426 780.343933,615.839844 
	C783.892639,621.965271 783.265808,624.216614 777.007935,627.888367 
	C773.702820,629.827515 770.385498,631.745850 766.758301,633.861328 
M710.884033,464.567200 
	C700.873474,447.264679 690.989746,429.887054 680.806396,412.686798 
	C674.313660,401.720215 662.482056,398.257111 652.623352,403.969879 
	C642.557068,409.802917 639.745972,422.034332 645.955872,433.085785 
	C647.669250,436.135132 649.462219,439.139679 651.204895,442.172699 
	C653.860229,446.794159 656.543213,451.400452 659.138062,456.055725 
	C660.879395,459.179657 661.044495,462.259460 657.618652,464.316803 
	C654.241394,466.344879 651.586792,465.048279 649.691650,461.821533 
	C648.848083,460.385254 647.964172,458.972443 647.132446,457.529449 
	C640.478271,445.983948 633.849609,434.423737 627.178467,422.888062 
	C621.680420,413.380768 612.768433,409.204010 603.330139,411.646667 
	C590.883667,414.867798 584.706604,428.949982 591.037231,440.764709 
	C597.328186,452.505402 604.228271,463.919647 610.854065,475.481140 
	C612.261597,477.937012 613.874329,480.311127 614.965942,482.902588 
	C616.172729,485.767365 615.790344,488.512573 612.726318,490.222076 
	C609.647766,491.939667 607.253052,490.812103 605.410889,488.200714 
	C604.262512,486.572845 603.342957,484.782013 602.340881,483.052643 
	C592.319519,465.757141 582.347656,448.432709 572.262756,431.174347 
	C567.925476,423.751892 561.258484,419.919373 552.713135,420.789551 
	C543.078308,421.770691 537.093567,427.619843 534.812317,437.040894 
	C533.321411,443.197968 535.665405,448.472656 538.631470,453.603333 
	C548.885620,471.340942 559.157227,489.068573 569.381897,506.823212 
	C572.226746,511.763275 570.559570,516.387329 565.922058,516.670410 
	C562.762634,516.863220 561.177124,514.769470 559.783325,512.360168 
	C548.105103,492.173889 536.415039,471.994507 524.715271,451.820679 
	C511.177856,428.478210 497.821625,405.027405 483.992859,381.858704 
	C477.878723,371.615082 465.749908,368.932220 456.193573,374.777710 
	C446.692474,380.589447 443.904449,392.404236 449.741608,402.691803 
	C456.235992,414.137573 462.834534,425.524445 469.419037,436.918854 
	C489.839172,472.255676 510.279480,507.580841 530.694397,542.920654 
	C532.506714,546.057983 535.110840,549.268921 532.464783,553.021179 
	C529.670044,556.984314 525.830750,554.959106 522.400818,554.060120 
	C509.531372,550.687012 496.713867,547.114929 483.836395,543.773499 
	C472.349274,540.792847 461.704803,546.163391 458.340637,556.426147 
	C454.847748,567.081726 459.812836,577.028809 470.925079,581.843018 
	C521.807373,603.886658 572.687683,625.934998 623.531494,648.067139 
	C626.373718,649.304382 628.613159,649.523804 631.398010,647.796631 
	C638.048218,643.671936 644.923889,639.910767 651.707947,636.001892 
	C682.742126,618.121033 713.773743,600.235718 744.815247,582.367615 
	C747.049438,581.081543 748.809143,579.990417 748.362732,576.650085 
	C746.272339,561.007385 744.417969,545.331299 742.659546,529.646912 
	C741.762268,521.643127 740.008484,514.178894 735.611938,507.101349 
	C727.090515,493.383606 719.345398,479.183685 710.884033,464.567200 
M761.220459,605.258484 
	C759.354736,602.109436 757.444397,598.985657 755.635437,595.804321 
	C753.676880,592.359985 751.605408,591.276917 747.690735,593.693604 
	C738.212280,599.545105 728.433228,604.909546 718.778076,610.475037 
	C694.999023,624.182129 671.215027,637.880676 647.448914,651.610168 
	C642.805603,654.292480 640.320251,660.154297 641.746033,664.733398 
	C643.128479,669.173340 647.489136,671.464478 653.473938,670.825562 
	C654.964722,670.666504 656.858337,669.951111 657.782959,671.139526 
	C661.051331,675.340149 664.115173,674.752686 667.541260,671.443359 
	C668.170410,670.835571 669.431152,670.907471 670.378601,670.598816 
	C674.635315,669.211975 679.536194,668.710938 683.009521,666.222351 
	C692.145447,659.676392 701.499695,653.940796 712.609375,651.497131 
	C713.543152,651.291626 714.372559,650.580017 715.231750,650.071960 
	C729.071716,641.888367 742.985291,633.825500 756.718201,625.465820 
	C765.249512,620.272583 768.776184,615.755127 762.057861,606.775452 
	C761.861023,606.512390 761.744080,606.189636 761.220459,605.258484 
z"/>
<path fill="#000000" opacity="1.000000" stroke="none" 
	d="
M184.299164,414.773407 
	C178.616516,409.624115 175.125900,403.394653 171.847672,396.989380 
	C158.408188,370.730133 144.538086,344.717377 126.983971,320.887573 
	C124.122757,317.003479 121.000755,313.305481 117.891380,309.612335 
	C115.869301,307.210632 115.928169,305.502228 119.107811,304.413361 
	C119.421631,304.305908 119.714371,304.138275 120.021278,304.008972 
	C133.541641,298.312988 133.441971,298.420959 144.458801,308.606354 
	C160.900833,323.807434 176.288467,339.892548 188.278458,358.955750 
	C188.883392,359.917572 189.498825,360.966309 190.871765,361.186646 
	C192.483612,360.631958 192.779602,359.005371 193.393509,357.718781 
	C219.265533,303.498840 253.489319,255.263855 296.813690,213.582474 
	C309.086914,201.774719 322.554260,191.427521 336.741760,182.002747 
	C339.314819,180.293442 340.923431,180.284882 342.910217,182.983765 
	C349.676849,192.175568 349.804413,192.136093 341.642792,199.950821 
	C288.035889,251.279480 249.485703,312.133728 226.113846,382.580048 
	C224.335663,387.939789 222.931931,393.422821 221.295197,398.830688 
	C219.265625,405.536499 215.614334,411.244629 210.227554,415.714935 
	C202.688980,421.970917 193.451965,421.647125 184.299164,414.773407 
z"/>
<path fill="#000000" opacity="1.000000" stroke="none" 
	d="
M890.963989,742.891235 
	C887.030029,751.823181 879.580688,753.987366 871.154114,753.768005 
	C861.824768,753.525330 854.890198,749.340088 851.744934,740.145996 
	C849.373169,733.212952 849.056885,726.148071 851.132080,719.065613 
	C855.165344,705.300232 872.744751,699.259216 884.364624,707.622314 
	C889.621399,711.405762 893.133362,722.259583 891.201477,728.407104 
	C890.368286,731.058350 888.103333,730.716858 886.286133,730.786682 
	C878.641907,731.080505 870.985901,731.352600 863.340698,731.229675 
	C858.801758,731.156738 857.843811,732.626892 859.244812,736.848633 
	C860.989563,742.106018 864.221741,745.480652 869.659363,746.380127 
	C874.851929,747.239136 879.586365,746.182678 883.227905,741.989258 
	C886.591919,738.115479 887.357788,738.171875 890.963989,742.891235 
M881.577209,723.713867 
	C884.739624,720.221130 881.877686,713.533875 876.418091,711.658997 
	C867.172668,708.484009 859.413269,713.953796 859.023987,723.793701 
	C866.268250,723.793701 873.514526,723.793701 881.577209,723.713867 
z"/>
<path fill="#000000" opacity="1.000000" stroke="none" 
	d="
M846.064087,223.072159 
	C852.833679,216.918869 860.468689,215.792358 868.652161,217.962311 
	C877.447266,220.294464 883.954895,232.756653 881.190552,241.292313 
	C880.490784,243.452927 878.845825,243.279358 877.225647,243.465225 
	C869.274414,244.377380 861.283508,244.090317 853.308105,244.273071 
	C848.043640,244.393692 847.603455,245.121811 849.154663,250.266800 
	C850.711304,255.429901 854.238342,258.492889 859.348267,259.388580 
	C864.462036,260.285004 869.473450,259.567169 872.874207,255.085815 
	C874.827759,252.511383 876.639648,251.388260 879.369690,253.689392 
	C882.143921,256.027863 879.795593,257.971954 878.582947,259.672485 
	C871.100830,270.164764 850.449280,268.854492 843.609253,257.531616 
	C837.494446,247.409256 838.440857,232.714569 846.064087,223.072159 
M867.762634,225.449097 
	C858.372498,221.981155 850.936096,225.278870 848.867126,233.764526 
	C848.437805,235.525558 848.018677,237.523712 850.455750,237.485382 
	C857.976318,237.367111 865.491211,236.890472 873.106689,236.548599 
	C872.905518,231.785217 871.923157,228.240219 867.762634,225.449097 
z"/>
<path fill="#000000" opacity="1.000000" stroke="none" 
	d="
M849.370850,340.738129 
	C853.809814,352.718506 858.146606,364.322601 862.483398,375.926666 
	C862.861938,375.915894 863.240540,375.905090 863.619080,375.894318 
	C865.326477,370.758118 867.086670,365.638702 868.730103,360.482117 
	C872.061890,350.028168 875.299316,339.544098 878.637268,329.092102 
	C880.511230,323.224304 881.371216,322.836609 887.721924,324.521881 
	C888.668762,326.410431 887.581909,328.109955 887.047180,329.776154 
	C881.458679,347.189301 875.602417,364.519592 870.274292,382.011139 
	C868.825378,386.767731 865.987610,387.437103 861.871887,387.777252 
	C857.524963,388.136475 857.059204,385.037018 856.048218,382.326019 
	C849.597107,365.028198 843.186890,347.715088 836.797668,330.394287 
	C836.237183,328.874878 835.207275,327.401306 835.863770,325.625305 
	C842.159851,323.647552 843.144165,324.093018 845.434204,330.078705 
	C846.741333,333.495300 847.992371,336.933411 849.370850,340.738129 
z"/>
<path fill="#000000" opacity="1.000000" stroke="none" 
	d="
M848.016113,468.103485 
	C855.674011,459.967773 864.697021,458.910187 874.366333,462.254242 
	C882.425781,465.041534 887.266785,473.319244 887.314758,483.393127 
	C887.331238,486.864807 887.650696,490.345093 886.713196,493.808960 
	C883.680664,505.013977 875.720581,510.792236 863.772339,510.287445 
	C853.178345,509.839874 845.721924,503.065430 843.649719,492.227692 
	C842.024231,483.726257 842.729858,475.697815 848.016113,468.103485 
M879.051514,484.598328 
	C878.938232,483.104431 878.880371,481.603912 878.702271,480.117798 
	C877.798401,472.574585 873.301636,468.185181 866.059692,467.733276 
	C858.517944,467.262665 853.367676,471.105652 851.814941,478.775696 
	C850.818176,483.699371 850.885742,488.706909 852.346619,493.584961 
	C854.444641,500.590759 859.254883,503.509125 867.372925,502.795166 
	C873.808289,502.229187 878.004456,497.894226 878.724060,491.004272 
	C878.914001,489.185455 878.966125,487.352295 879.051514,484.598328 
z"/>
<path fill="#000000" opacity="1.000000" stroke="none" 
	d="
M418.082275,398.949738 
	C421.662140,397.980316 424.633087,398.368683 425.934418,401.803284 
	C427.310303,405.434509 425.202637,407.737854 422.161774,409.489136 
	C404.412659,419.711273 386.687683,429.975281 368.950287,440.217865 
	C365.589691,442.158447 362.322601,442.815521 359.808105,438.966370 
	C357.737061,435.795929 358.996796,432.884247 363.603973,430.226929 
	C381.636749,419.826080 399.693085,409.466156 418.082275,398.949738 
z"/>
<path fill="#000000" opacity="1.000000" stroke="none" 
	d="
M410.692017,306.250000 
	C407.348175,300.452789 404.129852,295.004791 401.034454,289.487793 
	C399.147430,286.124542 398.530334,282.583160 402.536499,280.413422 
	C406.273529,278.389404 408.846436,280.653107 410.692719,283.832336 
	C420.976532,301.540771 431.273468,319.241699 441.492004,336.987762 
	C444.101471,341.519470 443.559631,344.610901 439.993073,346.342102 
	C435.738892,348.407043 433.458130,345.664398 431.600769,342.468048 
	C424.658234,330.520691 417.774933,318.538940 410.692017,306.250000 
z"/>
<path fill="#000000" opacity="1.000000" stroke="none" 
	d="
M554.654053,320.551453 
	C558.320374,319.835571 560.564392,321.145782 561.506409,324.333191 
	C562.411011,327.394196 560.802185,329.508636 558.324585,330.943207 
	C540.056458,341.520721 521.779541,352.083557 503.451172,362.556152 
	C500.381989,364.309784 497.142151,364.277802 495.266327,360.769318 
	C493.464874,357.399872 494.820160,354.672150 498.029877,352.835327 
	C516.781555,342.104462 535.538330,331.382446 554.654053,320.551453 
z"/>
<path fill="#000000" opacity="1.000000" stroke="none" 
	d="
M353.187286,346.792175 
	C374.441406,352.312958 395.276428,357.891541 416.135345,363.379181 
	C419.858917,364.358795 422.384064,366.368530 421.532562,370.333527 
	C420.577972,374.778564 416.982361,375.202179 413.234955,374.209076 
	C393.345001,368.938110 373.471008,363.606659 353.597839,358.272522 
	C350.733917,357.503815 348.112061,356.183899 347.896851,352.829132 
	C347.685638,349.536346 349.725891,347.670380 353.187286,346.792175 
z"/>
<path fill="#000000" opacity="1.000000" stroke="none" 
	d="
M473.203308,311.401855 
	C476.477570,299.311798 479.583984,287.597961 482.770660,275.906006 
	C483.244141,274.168854 483.873047,272.393890 484.826569,270.887421 
	C486.113098,268.854645 488.247131,268.288422 490.543640,268.923553 
	C492.859375,269.563995 494.317902,271.130432 494.262848,273.608795 
	C494.222778,275.412659 493.996582,277.257996 493.533691,278.999878 
	C488.503357,297.928802 483.411041,316.841217 478.329529,335.756531 
	C478.114624,336.556488 477.874878,337.353424 477.586700,338.129486 
	C476.369049,341.408142 474.026306,343.089233 470.598450,342.060455 
	C467.146606,341.024506 466.104248,338.169861 466.914124,334.889435 
	C468.545349,328.282013 470.415344,321.733582 472.183228,315.159882 
	C472.485077,314.037415 472.769165,312.910187 473.203308,311.401855 
z"/>
<path fill="#000000" opacity="1.000000" stroke="none" 
	d="
M867.349854,596.141235 
	C867.653809,603.738220 867.867920,610.884705 868.290100,618.018799 
	C868.617737,623.554688 872.237427,625.876770 877.643433,623.971863 
	C880.320923,623.028442 882.802673,621.821411 884.002930,625.660217 
	C885.326782,629.894348 881.822571,630.402100 879.280884,631.109497 
	C867.903381,634.276428 860.597290,629.159912 859.944458,617.358093 
	C859.522217,609.725525 859.638672,602.057739 859.690674,594.406982 
	C859.710449,591.499634 858.779907,589.990906 855.702454,590.175537 
	C853.331787,590.317810 851.380371,589.841736 851.193665,586.862915 
	C851.004089,583.838928 852.912537,583.213257 855.291321,583.122070 
	C858.054321,583.016052 859.189819,581.478516 858.961853,578.901733 
	C858.466980,573.305603 861.482056,571.970337 866.178345,572.557434 
	C867.614746,574.057251 867.436462,575.832031 867.247681,577.413025 
	C866.692322,582.065613 868.967590,583.292847 873.104797,582.812317 
	C874.911682,582.602539 876.761230,582.782043 878.589966,582.731567 
	C880.966553,582.666016 882.359253,583.452942 882.293640,586.161499 
	C882.234985,588.579773 881.013672,589.350342 878.842041,589.328186 
	C877.012939,589.309509 875.157654,589.586426 873.358215,589.367859 
	C868.404785,588.765991 866.670837,591.029663 867.349854,596.141235 
z"/>
</svg>